<svg width="25" height="25" viewBox="0 0 25 25" fill="none" xmlns="http://www.w3.org/2000/svg">
<path d="M12.5 0C10.0277 0 7.61099 0.733112 5.55538 2.10663C3.49976 3.48015 1.89761 5.43238 0.951511 7.71646C0.00541606 10.0005 -0.242126 12.5139 0.24019 14.9386C0.722505 17.3634 1.91301 19.5907 3.66117 21.3388C5.40933 23.087 7.63661 24.2775 10.0614 24.7598C12.4861 25.2421 14.9995 24.9946 17.2835 24.0485C19.5676 23.1024 21.5199 21.5002 22.8934 19.4446C24.2669 17.389 25 14.9723 25 12.5C24.9965 9.18587 23.6784 6.00848 21.335 3.66503C18.9915 1.32158 15.8141 0.00349978 12.5 0ZM12.5 23.0769C10.4081 23.0769 8.36315 22.4566 6.62378 21.2944C4.88441 20.1322 3.52874 18.4803 2.7282 16.5476C1.92766 14.6149 1.7182 12.4883 2.12631 10.4365C2.53443 8.38482 3.54178 6.50019 5.02099 5.02099C6.5002 3.54178 8.38483 2.53442 10.4365 2.12631C12.4883 1.7182 14.6149 1.92765 16.5476 2.7282C18.4803 3.52874 20.1322 4.88441 21.2944 6.62377C22.4566 8.36314 23.0769 10.4081 23.0769 12.5C23.0737 15.3042 21.9584 17.9926 19.9755 19.9755C17.9926 21.9584 15.3042 23.0737 12.5 23.0769ZM8.65385 12.5C8.65385 13.3072 8.90784 14.094 9.37984 14.7489C9.85184 15.4037 10.5179 15.8935 11.2837 16.1488C12.0496 16.4041 12.8763 16.4119 13.6468 16.1712C14.4173 15.9305 15.0926 15.4535 15.5769 14.8077C15.7301 14.6037 15.958 14.4689 16.2106 14.4329C16.4632 14.397 16.7197 14.4628 16.9237 14.616C17.1277 14.7692 17.2625 14.9971 17.2985 15.2497C17.3344 15.5022 17.2686 15.7587 17.1154 15.9627C16.3887 16.9311 15.3758 17.6464 14.22 18.0071C13.0643 18.3679 11.8244 18.3559 10.6758 17.9729C9.52725 17.5899 8.52831 16.8553 7.82044 15.873C7.11258 14.8908 6.73167 13.7107 6.73167 12.5C6.73167 11.2893 7.11258 10.1092 7.82044 9.12697C8.52831 8.14473 9.52725 7.41008 10.6758 7.02706C11.8244 6.64405 13.0643 6.63208 14.22 6.99285C15.3758 7.35363 16.3887 8.06886 17.1154 9.03726C17.1912 9.13827 17.2464 9.25324 17.2778 9.37559C17.3093 9.49794 17.3163 9.62528 17.2985 9.75034C17.2807 9.8754 17.2384 9.99572 17.1741 10.1044C17.1098 10.2132 17.0247 10.3082 16.9237 10.384C16.8227 10.4599 16.7077 10.5151 16.5853 10.5465C16.463 10.5779 16.3357 10.5849 16.2106 10.5671C16.0855 10.5493 15.9652 10.507 15.8565 10.4427C15.7478 10.3784 15.6528 10.2933 15.5769 10.1923C15.0926 9.54651 14.4173 9.06948 13.6468 8.82879C12.8763 8.5881 12.0496 8.59594 11.2837 8.85122C10.5179 9.10649 9.85184 9.59624 9.37984 10.2511C8.90784 10.906 8.65385 11.6928 8.65385 12.5Z" fill="white"/>
</svg>
